<?xml version="1.0" encoding="utf-8" standalone="no"?>
<!DOCTYPE svg PUBLIC "-//W3C//DTD SVG 1.1//EN"
  "http://www.w3.org/Graphics/SVG/1.1/DTD/svg11.dtd">
<svg xmlns:xlink="http://www.w3.org/1999/xlink" width="864pt" height="864pt" viewBox="0 0 864 864" xmlns="http://www.w3.org/2000/svg" version="1.1">
 <metadata>
  <rdf:RDF xmlns:dc="http://purl.org/dc/elements/1.1/" xmlns:cc="http://creativecommons.org/ns#" xmlns:rdf="http://www.w3.org/1999/02/22-rdf-syntax-ns#">
   <cc:Work>
    <dc:type rdf:resource="http://purl.org/dc/dcmitype/StillImage"/>
    <dc:date>2024-09-14T14:27:05.315569</dc:date>
    <dc:format>image/svg+xml</dc:format>
    <dc:creator>
     <cc:Agent>
      <dc:title>Matplotlib v3.9.2, https://matplotlib.org/</dc:title>
     </cc:Agent>
    </dc:creator>
   </cc:Work>
  </rdf:RDF>
 </metadata>
 <defs>
  <style type="text/css">*{stroke-linejoin: round; stroke-linecap: butt}</style>
 </defs>
 <g id="figure_1">
  <g id="patch_1">
   <path d="M 0 864 
L 864 864 
L 864 0 
L 0 0 
z
" style="fill: #ffffff"/>
  </g>
  <g id="axes_1">
   <g id="patch_2">
    <path d="M 489.263579 450.672099 
Q 447.386527 556.271757 405.921622 660.832119 
" clip-path="url(#p20533e3c70)" style="fill: none; stroke: #808080; stroke-linecap: round"/>
    <path d="M 409.255313 657.851095 
L 405.921622 660.832119 
L 405.537017 656.376552 
z
" clip-path="url(#p20533e3c70)" style="fill: #808080; stroke: #808080; stroke-linecap: round"/>
   </g>
   <g id="patch_3">
    <path d="M 489.63355 399.612301 
Q 445.446232 283.283159 401.65592 167.999189 
" clip-path="url(#p20533e3c70)" style="fill: none; stroke: #808080; stroke-linecap: round"/>
    <path d="M 401.20663 172.448699 
L 401.65592 167.999189 
L 404.945954 171.028327 
z
" clip-path="url(#p20533e3c70)" style="fill: #808080; stroke: #808080; stroke-linecap: round"/>
   </g>
   <g id="patch_4">
    <path d="M 507.115766 451.477427 
Q 542.055881 569.771125 576.679291 686.992583 
" clip-path="url(#p20533e3c70)" style="fill: none; stroke: #808080; stroke-linecap: round"/>
    <path d="M 577.464294 682.589883 
L 576.679291 686.992583 
L 573.628133 683.72296 
z
" clip-path="url(#p20533e3c70)" style="fill: #808080; stroke: #808080; stroke-linecap: round"/>
   </g>
   <g id="patch_5">
    <path d="M 487.861122 400.361442 
Q 420.728752 255.245013 354.065799 111.1433 
" clip-path="url(#p20533e3c70)" style="fill: none; stroke: #808080; stroke-linecap: round"/>
    <path d="M 353.930062 115.613376 
L 354.065799 111.1433 
L 357.560417 113.933936 
z
" clip-path="url(#p20533e3c70)" style="fill: #808080; stroke: #808080; stroke-linecap: round"/>
   </g>
   <g id="patch_6">
    <path d="M 522.950303 439.122038 
Q 644.191292 510.590937 764.469133 581.492082 
" clip-path="url(#p20533e3c70)" style="fill: none; stroke: #808080; stroke-linecap: round"/>
    <path d="M 762.0389 577.737889 
L 764.469133 581.492082 
L 760.007639 581.183753 
z
" clip-path="url(#p20533e3c70)" style="fill: #808080; stroke: #808080; stroke-linecap: round"/>
   </g>
   <g id="patch_7">
    <path d="M 404.040036 638.218465 
Q 402.096241 649.285873 400.345849 659.252102 
" clip-path="url(#p20533e3c70)" style="fill: none; stroke: #808080; stroke-linecap: round"/>
    <path d="M 403.007636 655.658373 
L 400.345849 659.252102 
L 399.067938 654.966435 
z
" clip-path="url(#p20533e3c70)" style="fill: #808080; stroke: #808080; stroke-linecap: round"/>
   </g>
   <g id="patch_8">
    <path d="M 569.668919 554.227057 
Q 493.42362 612.464815 418.066818 670.02392 
" clip-path="url(#p20533e3c70)" style="fill: none; stroke: #808080; stroke-linecap: round"/>
    <path d="M 422.459619 669.185289 
L 418.066818 670.02392 
L 420.031594 666.006501 
z
" clip-path="url(#p20533e3c70)" style="fill: #808080; stroke: #808080; stroke-linecap: round"/>
   </g>
   <g id="patch_9">
    <path d="M 612.784826 520.453751 
Q 687.205874 460.679744 760.755242 401.605859 
" clip-path="url(#p20533e3c70)" style="fill: none; stroke: #808080; stroke-linecap: round"/>
    <path d="M 756.384202 402.551384 
L 760.755242 401.605859 
L 758.889038 405.670005 
z
" clip-path="url(#p20533e3c70)" style="fill: #808080; stroke: #808080; stroke-linecap: round"/>
   </g>
   <g id="patch_10">
    <path d="M 460.830945 488.51841 
Q 432.402714 574.915667 404.323931 660.250904 
" clip-path="url(#p20533e3c70)" style="fill: none; stroke: #808080; stroke-linecap: round"/>
    <path d="M 407.473952 657.076418 
L 404.323931 660.250904 
L 403.674355 655.826195 
z
" clip-path="url(#p20533e3c70)" style="fill: #808080; stroke: #808080; stroke-linecap: round"/>
   </g>
   <g id="patch_11">
    <path d="M 462.937801 435.888349 
Q 430.462399 301.929461 398.250411 169.057132 
" clip-path="url(#p20533e3c70)" style="fill: none; stroke: #808080; stroke-linecap: round"/>
    <path d="M 397.249127 173.415737 
L 398.250411 169.057132 
L 401.136524 172.473322 
z
" clip-path="url(#p20533e3c70)" style="fill: #808080; stroke: #808080; stroke-linecap: round"/>
   </g>
   <g id="patch_12">
    <path d="M 442.022211 463.425745 
Q 272.185402 469.139588 103.465995 474.815839 
" clip-path="url(#p20533e3c70)" style="fill: none; stroke: #808080; stroke-linecap: round"/>
    <path d="M 107.530981 476.680211 
L 103.465995 474.815839 
L 107.396484 472.682473 
z
" clip-path="url(#p20533e3c70)" style="fill: #808080; stroke: #808080; stroke-linecap: round"/>
   </g>
   <g id="patch_13">
    <path d="M 480.795503 487.401018 
Q 527.071462 588.416316 572.881775 688.415162 
" clip-path="url(#p20533e3c70)" style="fill: none; stroke: #808080; stroke-linecap: round"/>
    <path d="M 573.034117 683.945622 
L 572.881775 688.415162 
L 569.397548 685.611564 
z
" clip-path="url(#p20533e3c70)" style="fill: #808080; stroke: #808080; stroke-linecap: round"/>
   </g>
   <g id="patch_14">
    <path d="M 460.633477 436.553698 
Q 405.74444 273.889514 351.212867 112.284679 
" clip-path="url(#p20533e3c70)" style="fill: none; stroke: #808080; stroke-linecap: round"/>
    <path d="M 350.59675 116.714171 
L 351.212867 112.284679 
L 354.38679 115.435268 
z
" clip-path="url(#p20533e3c70)" style="fill: #808080; stroke: #808080; stroke-linecap: round"/>
   </g>
   <g id="patch_15">
    <path d="M 495.951617 455.835028 
Q 626.182604 423.131827 755.329224 390.700929 
" clip-path="url(#p20533e3c70)" style="fill: none; stroke: #808080; stroke-linecap: round"/>
    <path d="M 750.962566 389.735375 
L 755.329224 390.700929 
L 751.936786 393.614923 
z
" clip-path="url(#p20533e3c70)" style="fill: #808080; stroke: #808080; stroke-linecap: round"/>
   </g>
   <g id="patch_16">
    <path d="M 473.24465 489.61616 
Q 492.599814 625.763117 511.797617 760.80317 
" clip-path="url(#p20533e3c70)" style="fill: none; stroke: #808080; stroke-linecap: round"/>
    <path d="M 513.214714 756.561491 
L 511.797617 760.80317 
L 509.254532 757.124485 
z
" clip-path="url(#p20533e3c70)" style="fill: #808080; stroke: #808080; stroke-linecap: round"/>
   </g>
   <g id="patch_17">
    <path d="M 494.661809 473.056963 
Q 629.206121 529.235427 762.718724 584.983105 
" clip-path="url(#p20533e3c70)" style="fill: none; stroke: #808080; stroke-linecap: round"/>
    <path d="M 759.798183 581.596301 
L 762.718724 584.983105 
L 758.256956 585.287455 
z
" clip-path="url(#p20533e3c70)" style="fill: #808080; stroke: #808080; stroke-linecap: round"/>
   </g>
   <g id="patch_18">
    <path d="M 389.047995 618.840141 
Q 390.964108 639.449759 392.776722 658.946144 
" clip-path="url(#p20533e3c70)" style="fill: none; stroke: #808080; stroke-linecap: round"/>
    <path d="M 394.397844 654.778175 
L 392.776722 658.946144 
L 390.41502 655.148465 
z
" clip-path="url(#p20533e3c70)" style="fill: #808080; stroke: #808080; stroke-linecap: round"/>
   </g>
   <g id="patch_19">
    <path d="M 477.128682 484.503274 
Q 441.388393 573.214868 406.065908 660.889427 
" clip-path="url(#p20533e3c70)" style="fill: none; stroke: #808080; stroke-linecap: round"/>
    <path d="M 409.415787 657.926607 
L 406.065908 660.889427 
L 405.705579 656.431831 
z
" clip-path="url(#p20533e3c70)" style="fill: #808080; stroke: #808080; stroke-linecap: round"/>
   </g>
   <g id="patch_20">
    <path d="M 470.160264 437.787638 
Q 375.324261 320.30825 281.190531 203.698813 
" clip-path="url(#p20533e3c70)" style="fill: none; stroke: #808080; stroke-linecap: round"/>
    <path d="M 282.146844 208.067504 
L 281.190531 203.698813 
L 285.259272 205.554977 
z
" clip-path="url(#p20533e3c70)" style="fill: #808080; stroke: #808080; stroke-linecap: round"/>
   </g>
   <g id="patch_21">
    <path d="M 512.304995 470.414918 
Q 638.194009 527.532772 763.064885 584.188679 
" clip-path="url(#p20533e3c70)" style="fill: none; stroke: #808080; stroke-linecap: round"/>
    <path d="M 760.248635 580.714671 
L 763.064885 584.188679 
L 758.595928 584.357274 
z
" clip-path="url(#p20533e3c70)" style="fill: #808080; stroke: #808080; stroke-linecap: round"/>
   </g>
   <g id="patch_22">
    <path d="M 465.516503 434.217371 
Q 434.120357 547.576573 403.02263 659.858304 
" clip-path="url(#p20533e3c70)" style="fill: none; stroke: #808080; stroke-linecap: round"/>
    <path d="M 406.017725 656.537249 
L 403.02263 659.858304 
L 402.162843 655.469595 
z
" clip-path="url(#p20533e3c70)" style="fill: #808080; stroke: #808080; stroke-linecap: round"/>
   </g>
   <g id="patch_23">
    <path d="M 454.221688 387.728375 
Q 368.057982 294.672257 282.653881 202.436505 
" clip-path="url(#p20533e3c70)" style="fill: none; stroke: #808080; stroke-linecap: round"/>
    <path d="M 283.904007 206.730359 
L 282.653881 202.436505 
L 286.83904 204.012716 
z
" clip-path="url(#p20533e3c70)" style="fill: #808080; stroke: #808080; stroke-linecap: round"/>
   </g>
   <g id="patch_24">
    <path d="M 464.834869 381.624575 
Q 432.180056 274.585553 399.851482 168.615909 
" clip-path="url(#p20533e3c70)" style="fill: none; stroke: #808080; stroke-linecap: round"/>
    <path d="M 399.10571 173.025424 
L 399.851482 168.615909 
L 402.931631 171.858235 
z
" clip-path="url(#p20533e3c70)" style="fill: #808080; stroke: #808080; stroke-linecap: round"/>
   </g>
   <g id="patch_25">
    <path d="M 496.359951 421.824631 
Q 630.924107 501.893472 764.527454 581.39061 
" clip-path="url(#p20533e3c70)" style="fill: none; stroke: #808080; stroke-linecap: round"/>
    <path d="M 762.112654 577.626471 
L 764.527454 581.39061 
L 760.067263 581.063967 
z
" clip-path="url(#p20533e3c70)" style="fill: #808080; stroke: #808080; stroke-linecap: round"/>
   </g>
   <g id="patch_26">
    <path d="M 471.228445 490.478888 
Q 438.243515 576.123285 405.66041 660.724352 
" clip-path="url(#p20533e3c70)" style="fill: none; stroke: #808080; stroke-linecap: round"/>
    <path d="M 408.964391 657.710432 
L 405.66041 660.724352 
L 405.231662 656.272816 
z
" clip-path="url(#p20533e3c70)" style="fill: #808080; stroke: #808080; stroke-linecap: round"/>
   </g>
   <g id="patch_27">
    <path d="M 464.384393 443.206715 
Q 372.179308 323.221133 280.655477 204.122058 
" clip-path="url(#p20533e3c70)" style="fill: none; stroke: #808080; stroke-linecap: round"/>
    <path d="M 281.506967 208.512384 
L 280.655477 204.122058 
L 284.678632 206.075061 
z
" clip-path="url(#p20533e3c70)" style="fill: #808080; stroke: #808080; stroke-linecap: round"/>
   </g>
   <g id="patch_28">
    <path d="M 506.269905 475.644389 
Q 635.04686 530.44377 762.795053 584.805375 
" clip-path="url(#p20533e3c70)" style="fill: none; stroke: #808080; stroke-linecap: round"/>
    <path d="M 759.89756 581.398832 
L 762.795053 584.805375 
L 758.331323 585.079443 
z
" clip-path="url(#p20533e3c70)" style="fill: #808080; stroke: #808080; stroke-linecap: round"/>
   </g>
   <g id="patch_29">
    <path d="M 389.578617 395.577549 
Q 333.390047 300.341359 277.769599 206.068101 
" clip-path="url(#p20533e3c70)" style="fill: none; stroke: #808080; stroke-linecap: round"/>
    <path d="M 278.079628 210.529478 
L 277.769599 206.068101 
L 281.524718 208.496903 
z
" clip-path="url(#p20533e3c70)" style="fill: #808080; stroke: #808080; stroke-linecap: round"/>
   </g>
   <g id="patch_30">
    <path d="M 402.317393 391.80244 
Q 397.514516 280.256053 392.759733 169.826665 
" clip-path="url(#p20533e3c70)" style="fill: none; stroke: #808080; stroke-linecap: round"/>
    <path d="M 390.933654 173.908997 
L 392.759733 169.826665 
L 394.929951 173.736927 
z
" clip-path="url(#p20533e3c70)" style="fill: #808080; stroke: #808080; stroke-linecap: round"/>
   </g>
   <g id="patch_31">
    <path d="M 411.453516 445.372014 
Q 459.65273 604.095645 507.527082 761.74948 
" clip-path="url(#p20533e3c70)" style="fill: none; stroke: #808080; stroke-linecap: round"/>
    <path d="M 508.278529 757.340928 
L 507.527082 761.74948 
L 504.451109 758.503191 
z
" clip-path="url(#p20533e3c70)" style="fill: #808080; stroke: #808080; stroke-linecap: round"/>
   </g>
   <g id="patch_32">
    <path d="M 386.767077 294.492761 
Q 335.128566 247.248453 284.314942 200.758838 
" clip-path="url(#p20533e3c70)" style="fill: none; stroke: #808080; stroke-linecap: round"/>
    <path d="M 285.916112 204.934512 
L 284.314942 200.758838 
L 288.616183 201.983307 
z
" clip-path="url(#p20533e3c70)" style="fill: #808080; stroke: #808080; stroke-linecap: round"/>
   </g>
   <g id="patch_33">
    <path d="M 479.817883 222.758563 
Q 445.742722 191.33757 412.489493 160.674487 
" clip-path="url(#p20533e3c70)" style="fill: none; stroke: #808080; stroke-linecap: round"/>
    <path d="M 414.074335 164.856386 
L 412.489493 160.674487 
L 416.785917 161.915753 
z
" clip-path="url(#p20533e3c70)" style="fill: #808080; stroke: #808080; stroke-linecap: round"/>
   </g>
   <g id="patch_34">
    <path d="M 384.221328 157.316147 
Q 387.877487 149.333536 391.06808 142.367413 
" clip-path="url(#p20533e3c70)" style="fill: none; stroke: #808080; stroke-linecap: round"/>
    <path d="M 387.584068 145.171278 
L 391.06808 142.367413 
L 391.220765 146.836942 
z
" clip-path="url(#p20533e3c70)" style="fill: #808080; stroke: #808080; stroke-linecap: round"/>
   </g>
   <g id="patch_35">
    <path d="M 451.018208 136.335621 
Q 434.921724 137.692759 419.93932 138.955966 
" clip-path="url(#p20533e3c70)" style="fill: none; stroke: #808080; stroke-linecap: round"/>
    <path d="M 424.093208 140.612837 
L 419.93932 138.955966 
L 423.757149 136.626979 
z
" clip-path="url(#p20533e3c70)" style="fill: #808080; stroke: #808080; stroke-linecap: round"/>
   </g>
   <g id="patch_36">
    <path d="M 365.366665 181.334642 
Q 370.952543 172.799299 375.926187 165.199463 
" clip-path="url(#p20533e3c70)" style="fill: none; stroke: #808080; stroke-linecap: round"/>
    <path d="M 372.062312 167.451233 
L 375.926187 165.199463 
L 375.409279 169.641625 
z
" clip-path="url(#p20533e3c70)" style="fill: #808080; stroke: #808080; stroke-linecap: round"/>
   </g>
   <g id="patch_37">
    <path d="M 240.965869 487.96679 
Q 171.626218 482.873618 103.401597 477.862348 
" clip-path="url(#p20533e3c70)" style="fill: none; stroke: #808080; stroke-linecap: round"/>
    <path d="M 107.24434 480.149995 
L 103.401597 477.862348 
L 107.53736 476.160743 
z
" clip-path="url(#p20533e3c70)" style="fill: #808080; stroke: #808080; stroke-linecap: round"/>
   </g>
   <g id="patch_38">
    <path d="M 221.730076 443.782334 
Q 161.732468 456.861593 102.82724 469.702717 
" clip-path="url(#p20533e3c70)" style="fill: none; stroke: #808080; stroke-linecap: round"/>
    <path d="M 107.161442 470.804848 
L 102.82724 469.702717 
L 106.309466 466.896634 
z
" clip-path="url(#p20533e3c70)" style="fill: #808080; stroke: #808080; stroke-linecap: round"/>
   </g>
   <g id="patch_39">
    <path d="M 233.319935 462.888861 
Q 167.796395 468.22092 103.387206 473.462297 
" clip-path="url(#p20533e3c70)" style="fill: none; stroke: #808080; stroke-linecap: round"/>
    <path d="M 107.536244 475.131275 
L 103.387206 473.462297 
L 107.211811 471.144454 
z
" clip-path="url(#p20533e3c70)" style="fill: #808080; stroke: #808080; stroke-linecap: round"/>
   </g>
   <g id="patch_40">
    <path d="M 398.78783 128.240481 
Q 381.354434 115.027317 364.812067 102.489483 
" clip-path="url(#p20533e3c70)" style="fill: none; stroke: #808080; stroke-linecap: round"/>
    <path d="M 366.791836 106.499534 
L 364.812067 102.489483 
L 369.20797 103.311698 
z
" clip-path="url(#p20533e3c70)" style="fill: #808080; stroke: #808080; stroke-linecap: round"/>
   </g>
   <g id="patch_41">
    <path d="M 436.275225 218.051029 
Q 397.109205 162.832121 358.590008 108.525145 
" clip-path="url(#p20533e3c70)" style="fill: none; stroke: #808080; stroke-linecap: round"/>
    <path d="M 359.272832 112.944846 
L 358.590008 108.525145 
L 362.535462 110.630706 
z
" clip-path="url(#p20533e3c70)" style="fill: #808080; stroke: #808080; stroke-linecap: round"/>
   </g>
   <g id="patch_42">
    <path d="M 381.660645 198.710458 
Q 366.388421 154.920507 351.484374 112.186229 
" clip-path="url(#p20533e3c70)" style="fill: none; stroke: #808080; stroke-linecap: round"/>
    <path d="M 350.913161 116.621735 
L 351.484374 112.186229 
L 354.690051 115.304503 
z
" clip-path="url(#p20533e3c70)" style="fill: #808080; stroke: #808080; stroke-linecap: round"/>
   </g>
   <g id="patch_43">
    <path d="M 425.766575 160.869785 
Q 394.093615 132.252761 363.250231 104.385271 
" clip-path="url(#p20533e3c70)" style="fill: none; stroke: #808080; stroke-linecap: round"/>
    <path d="M 364.877404 108.550882 
L 363.250231 104.385271 
L 367.559023 105.582899 
z
" clip-path="url(#p20533e3c70)" style="fill: #808080; stroke: #808080; stroke-linecap: round"/>
   </g>
   <g id="patch_44">
    <path d="M 380.467092 79.234069 
Q 374.811578 80.124416 370.260496 80.840893 
" clip-path="url(#p20533e3c70)" style="fill: none; stroke: #808080; stroke-linecap: round"/>
    <path d="M 374.522859 82.194502 
L 370.260496 80.840893 
L 373.900801 78.243167 
z
" clip-path="url(#p20533e3c70)" style="fill: #808080; stroke: #808080; stroke-linecap: round"/>
   </g>
   <g id="patch_45">
    <path d="M 535.948851 688.285518 
Q 528.563536 725.228069 521.397395 761.074279 
" clip-path="url(#p20533e3c70)" style="fill: none; stroke: #808080; stroke-linecap: round"/>
    <path d="M 524.142727 757.54396 
L 521.397395 761.074279 
L 520.220339 756.759822 
z
" clip-path="url(#p20533e3c70)" style="fill: #808080; stroke: #808080; stroke-linecap: round"/>
   </g>
   <g id="patch_46">
    <path d="M 696.181272 604.516394 
Q 728.967491 601.497347 760.640385 598.580819 
" clip-path="url(#p20533e3c70)" style="fill: none; stroke: #808080; stroke-linecap: round"/>
    <path d="M 756.473847 596.956024 
L 760.640385 598.580819 
L 756.840626 600.939173 
z
" clip-path="url(#p20533e3c70)" style="fill: #808080; stroke: #808080; stroke-linecap: round"/>
   </g>
   <g id="patch_47">
    <path d="M 721.407262 591.801281 
Q 741.549313 593.042205 760.575446 594.214379 
" clip-path="url(#p20533e3c70)" style="fill: none; stroke: #808080; stroke-linecap: round"/>
    <path d="M 756.705999 591.972196 
L 760.575446 594.214379 
L 756.460031 595.964626 
z
" clip-path="url(#p20533e3c70)" style="fill: #808080; stroke: #808080; stroke-linecap: round"/>
   </g>
   <g id="patch_48">
    <path d="M 717.272148 544.182012 
Q 742.045511 562.061365 765.912289 579.286421 
" clip-path="url(#p20533e3c70)" style="fill: none; stroke: #808080; stroke-linecap: round"/>
    <path d="M 763.839237 575.323789 
L 765.912289 579.286421 
L 761.498352 578.567284 
z
" clip-path="url(#p20533e3c70)" style="fill: #808080; stroke: #808080; stroke-linecap: round"/>
   </g>
   <g id="patch_49">
    <path d="M 688.355767 572.493385 
Q 725.355505 581.120879 761.266418 589.494485 
" clip-path="url(#p20533e3c70)" style="fill: none; stroke: #808080; stroke-linecap: round"/>
    <path d="M 757.82509 586.638393 
L 761.266418 589.494485 
L 756.916748 590.533893 
z
" clip-path="url(#p20533e3c70)" style="fill: #808080; stroke: #808080; stroke-linecap: round"/>
   </g>
   <g id="PathCollection_1">
    <defs>
     <path id="m2e0c8ab5c5" d="M 0 27.386128 
C 7.262886 27.386128 14.229281 24.500553 19.364917 19.364917 
C 24.500553 14.229281 27.386128 7.262886 27.386128 0 
C 27.386128 -7.262886 24.500553 -14.229281 19.364917 -19.364917 
C 14.229281 -24.500553 7.262886 -27.386128 0 -27.386128 
C -7.262886 -27.386128 -14.229281 -24.500553 -19.364917 -19.364917 
C -24.500553 -14.229281 -27.386128 -7.262886 -27.386128 0 
C -27.386128 7.262886 -24.500553 14.229281 -19.364917 19.364917 
C -14.229281 24.500553 -7.262886 27.386128 0 27.386128 
z
" style="stroke: #87ceeb"/>
    </defs>
    <g clip-path="url(#p20533e3c70)">
     <use xlink:href="#m2e0c8ab5c5" x="499.358808" y="425.21537" style="fill: #87ceeb; stroke: #87ceeb"/>
     <use xlink:href="#m2e0c8ab5c5" x="395.41522" y="687.325686" style="fill: #87ceeb; stroke: #87ceeb"/>
     <use xlink:href="#m2e0c8ab5c5" x="408.777771" y="611.243161" style="fill: #87ceeb; stroke: #87ceeb"/>
     <use xlink:href="#m2e0c8ab5c5" x="591.434555" y="537.602008" style="fill: #87ceeb; stroke: #87ceeb"/>
     <use xlink:href="#m2e0c8ab5c5" x="469.390424" y="462.504992" style="fill: #87ceeb; stroke: #87ceeb"/>
     <use xlink:href="#m2e0c8ab5c5" x="386.513004" y="591.573912" style="fill: #87ceeb; stroke: #87ceeb"/>
     <use xlink:href="#m2e0c8ab5c5" x="487.363734" y="459.09867" style="fill: #87ceeb; stroke: #87ceeb"/>
     <use xlink:href="#m2e0c8ab5c5" x="472.827013" y="407.821978" style="fill: #87ceeb; stroke: #87ceeb"/>
     <use xlink:href="#m2e0c8ab5c5" x="481.071552" y="464.921553" style="fill: #87ceeb; stroke: #87ceeb"/>
     <use xlink:href="#m2e0c8ab5c5" x="403.49559" y="419.165967" style="fill: #87ceeb; stroke: #87ceeb"/>
     <use xlink:href="#m2e0c8ab5c5" x="263.286098" y="181.519453" style="fill: #87ceeb; stroke: #87ceeb"/>
     <use xlink:href="#m2e0c8ab5c5" x="406.970504" y="312.976969" style="fill: #87ceeb; stroke: #87ceeb"/>
     <use xlink:href="#m2e0c8ab5c5" x="391.533647" y="141.350925" style="fill: #87ceeb; stroke: #87ceeb"/>
     <use xlink:href="#m2e0c8ab5c5" x="499.950911" y="241.323397" style="fill: #87ceeb; stroke: #87ceeb"/>
     <use xlink:href="#m2e0c8ab5c5" x="372.817033" y="182.215509" style="fill: #87ceeb; stroke: #87ceeb"/>
     <use xlink:href="#m2e0c8ab5c5" x="478.307012" y="134.034828" style="fill: #87ceeb; stroke: #87ceeb"/>
     <use xlink:href="#m2e0c8ab5c5" x="350.369957" y="204.249937" style="fill: #87ceeb; stroke: #87ceeb"/>
     <use xlink:href="#m2e0c8ab5c5" x="268.275561" y="489.972756" style="fill: #87ceeb; stroke: #87ceeb"/>
     <use xlink:href="#m2e0c8ab5c5" x="74.975207" y="475.774358" style="fill: #87ceeb; stroke: #87ceeb"/>
     <use xlink:href="#m2e0c8ab5c5" x="248.489561" y="437.948864" style="fill: #87ceeb; stroke: #87ceeb"/>
     <use xlink:href="#m2e0c8ab5c5" x="260.618601" y="460.667398" style="fill: #87ceeb; stroke: #87ceeb"/>
     <use xlink:href="#m2e0c8ab5c5" x="584.754411" y="714.331811" style="fill: #87ceeb; stroke: #87ceeb"/>
     <use xlink:href="#m2e0c8ab5c5" x="342.098588" y="85.274423" style="fill: #87ceeb; stroke: #87ceeb"/>
     <use xlink:href="#m2e0c8ab5c5" x="420.613871" y="144.782931" style="fill: #87ceeb; stroke: #87ceeb"/>
     <use xlink:href="#m2e0c8ab5c5" x="452.117663" y="240.386772" style="fill: #87ceeb; stroke: #87ceeb"/>
     <use xlink:href="#m2e0c8ab5c5" x="390.679045" y="224.568858" style="fill: #87ceeb; stroke: #87ceeb"/>
     <use xlink:href="#m2e0c8ab5c5" x="446.08617" y="179.228864" style="fill: #87ceeb; stroke: #87ceeb"/>
     <use xlink:href="#m2e0c8ab5c5" x="407.519503" y="74.975207" style="fill: #87ceeb; stroke: #87ceeb"/>
     <use xlink:href="#m2e0c8ab5c5" x="782.976149" y="383.758319" style="fill: #87ceeb; stroke: #87ceeb"/>
     <use xlink:href="#m2e0c8ab5c5" x="515.80971" y="789.024793" style="fill: #87ceeb; stroke: #87ceeb"/>
     <use xlink:href="#m2e0c8ab5c5" x="541.317784" y="661.429239" style="fill: #87ceeb; stroke: #87ceeb"/>
     <use xlink:href="#m2e0c8ab5c5" x="789.024793" y="595.967104" style="fill: #87ceeb; stroke: #87ceeb"/>
     <use xlink:href="#m2e0c8ab5c5" x="668.913597" y="607.027277" style="fill: #87ceeb; stroke: #87ceeb"/>
     <use xlink:href="#m2e0c8ab5c5" x="694.073378" y="590.117278" style="fill: #87ceeb; stroke: #87ceeb"/>
     <use xlink:href="#m2e0c8ab5c5" x="695.06361" y="528.153737" style="fill: #87ceeb; stroke: #87ceeb"/>
     <use xlink:href="#m2e0c8ab5c5" x="661.685568" y="566.274503" style="fill: #87ceeb; stroke: #87ceeb"/>
    </g>
   </g>
   <g id="text_1">
    <g clip-path="url(#p20533e3c70)">
     <!-- os -->
     <g transform="translate(492.94787 427.974745) scale(0.1 -0.1)">
      <defs>
       <path id="DejaVuSans-Bold-6f" d="M 2203 2784 
Q 1831 2784 1636 2517 
Q 1441 2250 1441 1747 
Q 1441 1244 1636 976 
Q 1831 709 2203 709 
Q 2569 709 2762 976 
Q 2956 1244 2956 1747 
Q 2956 2250 2762 2517 
Q 2569 2784 2203 2784 
z
M 2203 3584 
Q 3106 3584 3614 3096 
Q 4122 2609 4122 1747 
Q 4122 884 3614 396 
Q 3106 -91 2203 -91 
Q 1297 -91 786 396 
Q 275 884 275 1747 
Q 275 2609 786 3096 
Q 1297 3584 2203 3584 
z
" transform="scale(0.015625)"/>
       <path id="DejaVuSans-Bold-73" d="M 3272 3391 
L 3272 2541 
Q 2913 2691 2578 2766 
Q 2244 2841 1947 2841 
Q 1628 2841 1473 2761 
Q 1319 2681 1319 2516 
Q 1319 2381 1436 2309 
Q 1553 2238 1856 2203 
L 2053 2175 
Q 2913 2066 3209 1816 
Q 3506 1566 3506 1031 
Q 3506 472 3093 190 
Q 2681 -91 1863 -91 
Q 1516 -91 1145 -36 
Q 775 19 384 128 
L 384 978 
Q 719 816 1070 734 
Q 1422 653 1784 653 
Q 2113 653 2278 743 
Q 2444 834 2444 1013 
Q 2444 1163 2330 1236 
Q 2216 1309 1875 1350 
L 1678 1375 
Q 931 1469 631 1722 
Q 331 1975 331 2491 
Q 331 3047 712 3315 
Q 1094 3584 1881 3584 
Q 2191 3584 2531 3537 
Q 2872 3491 3272 3391 
z
" transform="scale(0.015625)"/>
      </defs>
      <use xlink:href="#DejaVuSans-Bold-6f"/>
      <use xlink:href="#DejaVuSans-Bold-73" x="68.701172"/>
     </g>
    </g>
   </g>
   <g id="text_2">
    <g clip-path="url(#p20533e3c70)">
     <!-- database.app -->
     <g transform="translate(356.94647 690.085061) scale(0.1 -0.1)">
      <defs>
       <path id="DejaVuSans-Bold-64" d="M 2919 2988 
L 2919 4863 
L 4044 4863 
L 4044 0 
L 2919 0 
L 2919 506 
Q 2688 197 2409 53 
Q 2131 -91 1766 -91 
Q 1119 -91 703 423 
Q 288 938 288 1747 
Q 288 2556 703 3070 
Q 1119 3584 1766 3584 
Q 2128 3584 2408 3439 
Q 2688 3294 2919 2988 
z
M 2181 722 
Q 2541 722 2730 984 
Q 2919 1247 2919 1747 
Q 2919 2247 2730 2509 
Q 2541 2772 2181 2772 
Q 1825 2772 1636 2509 
Q 1447 2247 1447 1747 
Q 1447 1247 1636 984 
Q 1825 722 2181 722 
z
" transform="scale(0.015625)"/>
       <path id="DejaVuSans-Bold-61" d="M 2106 1575 
Q 1756 1575 1579 1456 
Q 1403 1338 1403 1106 
Q 1403 894 1545 773 
Q 1688 653 1941 653 
Q 2256 653 2472 879 
Q 2688 1106 2688 1447 
L 2688 1575 
L 2106 1575 
z
M 3816 1997 
L 3816 0 
L 2688 0 
L 2688 519 
Q 2463 200 2181 54 
Q 1900 -91 1497 -91 
Q 953 -91 614 226 
Q 275 544 275 1050 
Q 275 1666 698 1953 
Q 1122 2241 2028 2241 
L 2688 2241 
L 2688 2328 
Q 2688 2594 2478 2717 
Q 2269 2841 1825 2841 
Q 1466 2841 1156 2769 
Q 847 2697 581 2553 
L 581 3406 
Q 941 3494 1303 3539 
Q 1666 3584 2028 3584 
Q 2975 3584 3395 3211 
Q 3816 2838 3816 1997 
z
" transform="scale(0.015625)"/>
       <path id="DejaVuSans-Bold-74" d="M 1759 4494 
L 1759 3500 
L 2913 3500 
L 2913 2700 
L 1759 2700 
L 1759 1216 
Q 1759 972 1856 886 
Q 1953 800 2241 800 
L 2816 800 
L 2816 0 
L 1856 0 
Q 1194 0 917 276 
Q 641 553 641 1216 
L 641 2700 
L 84 2700 
L 84 3500 
L 641 3500 
L 641 4494 
L 1759 4494 
z
" transform="scale(0.015625)"/>
       <path id="DejaVuSans-Bold-62" d="M 2400 722 
Q 2759 722 2948 984 
Q 3138 1247 3138 1747 
Q 3138 2247 2948 2509 
Q 2759 2772 2400 2772 
Q 2041 2772 1848 2508 
Q 1656 2244 1656 1747 
Q 1656 1250 1848 986 
Q 2041 722 2400 722 
z
M 1656 2988 
Q 1888 3294 2169 3439 
Q 2450 3584 2816 3584 
Q 3463 3584 3878 3070 
Q 4294 2556 4294 1747 
Q 4294 938 3878 423 
Q 3463 -91 2816 -91 
Q 2450 -91 2169 54 
Q 1888 200 1656 506 
L 1656 0 
L 538 0 
L 538 4863 
L 1656 4863 
L 1656 2988 
z
" transform="scale(0.015625)"/>
       <path id="DejaVuSans-Bold-65" d="M 4031 1759 
L 4031 1441 
L 1416 1441 
Q 1456 1047 1700 850 
Q 1944 653 2381 653 
Q 2734 653 3104 758 
Q 3475 863 3866 1075 
L 3866 213 
Q 3469 63 3072 -14 
Q 2675 -91 2278 -91 
Q 1328 -91 801 392 
Q 275 875 275 1747 
Q 275 2603 792 3093 
Q 1309 3584 2216 3584 
Q 3041 3584 3536 3087 
Q 4031 2591 4031 1759 
z
M 2881 2131 
Q 2881 2450 2695 2645 
Q 2509 2841 2209 2841 
Q 1884 2841 1681 2658 
Q 1478 2475 1428 2131 
L 2881 2131 
z
" transform="scale(0.015625)"/>
       <path id="DejaVuSans-Bold-2e" d="M 653 1209 
L 1778 1209 
L 1778 0 
L 653 0 
L 653 1209 
z
" transform="scale(0.015625)"/>
       <path id="DejaVuSans-Bold-70" d="M 1656 506 
L 1656 -1331 
L 538 -1331 
L 538 3500 
L 1656 3500 
L 1656 2988 
Q 1888 3294 2169 3439 
Q 2450 3584 2816 3584 
Q 3463 3584 3878 3070 
Q 4294 2556 4294 1747 
Q 4294 938 3878 423 
Q 3463 -91 2816 -91 
Q 2450 -91 2169 54 
Q 1888 200 1656 506 
z
M 2400 2772 
Q 2041 2772 1848 2508 
Q 1656 2244 1656 1747 
Q 1656 1250 1848 986 
Q 2041 722 2400 722 
Q 2759 722 2948 984 
Q 3138 1247 3138 1747 
Q 3138 2247 2948 2509 
Q 2759 2772 2400 2772 
z
" transform="scale(0.015625)"/>
      </defs>
      <use xlink:href="#DejaVuSans-Bold-64"/>
      <use xlink:href="#DejaVuSans-Bold-61" x="71.582031"/>
      <use xlink:href="#DejaVuSans-Bold-74" x="139.0625"/>
      <use xlink:href="#DejaVuSans-Bold-61" x="186.865234"/>
      <use xlink:href="#DejaVuSans-Bold-62" x="254.345703"/>
      <use xlink:href="#DejaVuSans-Bold-61" x="325.927734"/>
      <use xlink:href="#DejaVuSans-Bold-73" x="393.408203"/>
      <use xlink:href="#DejaVuSans-Bold-65" x="452.929688"/>
      <use xlink:href="#DejaVuSans-Bold-2e" x="520.751953"/>
      <use xlink:href="#DejaVuSans-Bold-61" x="558.740234"/>
      <use xlink:href="#DejaVuSans-Bold-70" x="626.220703"/>
      <use xlink:href="#DejaVuSans-Bold-70" x="697.802734"/>
     </g>
    </g>
   </g>
   <g id="text_3">
    <g clip-path="url(#p20533e3c70)">
     <!-- sys -->
     <g transform="translate(399.566834 613.924411) scale(0.1 -0.1)">
      <defs>
       <path id="DejaVuSans-Bold-79" d="M 78 3500 
L 1197 3500 
L 2138 1125 
L 2938 3500 
L 4056 3500 
L 2584 -331 
Q 2363 -916 2067 -1148 
Q 1772 -1381 1288 -1381 
L 641 -1381 
L 641 -647 
L 991 -647 
Q 1275 -647 1404 -556 
Q 1534 -466 1606 -231 
L 1638 -134 
L 78 3500 
z
" transform="scale(0.015625)"/>
      </defs>
      <use xlink:href="#DejaVuSans-Bold-73"/>
      <use xlink:href="#DejaVuSans-Bold-79" x="59.521484"/>
      <use xlink:href="#DejaVuSans-Bold-73" x="124.707031"/>
     </g>
    </g>
   </g>
   <g id="text_4">
    <g clip-path="url(#p20533e3c70)">
     <!-- click -->
     <g transform="translate(578.753305 540.361383) scale(0.1 -0.1)">
      <defs>
       <path id="DejaVuSans-Bold-63" d="M 3366 3391 
L 3366 2478 
Q 3138 2634 2908 2709 
Q 2678 2784 2431 2784 
Q 1963 2784 1702 2511 
Q 1441 2238 1441 1747 
Q 1441 1256 1702 982 
Q 1963 709 2431 709 
Q 2694 709 2930 787 
Q 3166 866 3366 1019 
L 3366 103 
Q 3103 6 2833 -42 
Q 2563 -91 2291 -91 
Q 1344 -91 809 395 
Q 275 881 275 1747 
Q 275 2613 809 3098 
Q 1344 3584 2291 3584 
Q 2566 3584 2833 3536 
Q 3100 3488 3366 3391 
z
" transform="scale(0.015625)"/>
       <path id="DejaVuSans-Bold-6c" d="M 538 4863 
L 1656 4863 
L 1656 0 
L 538 0 
L 538 4863 
z
" transform="scale(0.015625)"/>
       <path id="DejaVuSans-Bold-69" d="M 538 3500 
L 1656 3500 
L 1656 0 
L 538 0 
L 538 3500 
z
M 538 4863 
L 1656 4863 
L 1656 3950 
L 538 3950 
L 538 4863 
z
" transform="scale(0.015625)"/>
       <path id="DejaVuSans-Bold-6b" d="M 538 4863 
L 1656 4863 
L 1656 2216 
L 2944 3500 
L 4244 3500 
L 2534 1894 
L 4378 0 
L 3022 0 
L 1656 1459 
L 1656 0 
L 538 0 
L 538 4863 
z
" transform="scale(0.015625)"/>
      </defs>
      <use xlink:href="#DejaVuSans-Bold-63"/>
      <use xlink:href="#DejaVuSans-Bold-6c" x="59.277344"/>
      <use xlink:href="#DejaVuSans-Bold-69" x="93.554688"/>
      <use xlink:href="#DejaVuSans-Bold-63" x="127.832031"/>
      <use xlink:href="#DejaVuSans-Bold-6b" x="187.109375"/>
     </g>
    </g>
   </g>
   <g id="text_5">
    <g clip-path="url(#p20533e3c70)">
     <!-- flask -->
     <g transform="translate(455.826361 465.264367) scale(0.1 -0.1)">
      <defs>
       <path id="DejaVuSans-Bold-66" d="M 2841 4863 
L 2841 4128 
L 2222 4128 
Q 1984 4128 1890 4042 
Q 1797 3956 1797 3744 
L 1797 3500 
L 2753 3500 
L 2753 2700 
L 1797 2700 
L 1797 0 
L 678 0 
L 678 2700 
L 122 2700 
L 122 3500 
L 678 3500 
L 678 3744 
Q 678 4316 997 4589 
Q 1316 4863 1984 4863 
L 2841 4863 
z
" transform="scale(0.015625)"/>
      </defs>
      <use xlink:href="#DejaVuSans-Bold-66"/>
      <use xlink:href="#DejaVuSans-Bold-6c" x="43.505859"/>
      <use xlink:href="#DejaVuSans-Bold-61" x="77.783203"/>
      <use xlink:href="#DejaVuSans-Bold-73" x="145.263672"/>
      <use xlink:href="#DejaVuSans-Bold-6b" x="204.785156"/>
     </g>
    </g>
   </g>
   <g id="text_6">
    <g clip-path="url(#p20533e3c70)">
     <!-- flask_sqlalchemy -->
     <g transform="translate(338.707535 594.194224) scale(0.1 -0.1)">
      <defs>
       <path id="DejaVuSans-Bold-5f" d="M 3200 -916 
L 3200 -1509 
L 0 -1509 
L 0 -916 
L 3200 -916 
z
" transform="scale(0.015625)"/>
       <path id="DejaVuSans-Bold-71" d="M 2181 2772 
Q 1825 2772 1636 2509 
Q 1447 2247 1447 1747 
Q 1447 1247 1636 984 
Q 1825 722 2181 722 
Q 2541 722 2730 984 
Q 2919 1247 2919 1747 
Q 2919 2247 2730 2509 
Q 2541 2772 2181 2772 
z
M 2919 506 
Q 2688 197 2409 53 
Q 2131 -91 1766 -91 
Q 1119 -91 703 423 
Q 288 938 288 1747 
Q 288 2556 703 3067 
Q 1119 3578 1766 3578 
Q 2131 3578 2409 3434 
Q 2688 3291 2919 2981 
L 2919 3500 
L 4044 3500 
L 4044 -1331 
L 2919 -1331 
L 2919 506 
z
" transform="scale(0.015625)"/>
       <path id="DejaVuSans-Bold-68" d="M 4056 2131 
L 4056 0 
L 2931 0 
L 2931 347 
L 2931 1625 
Q 2931 2084 2911 2256 
Q 2891 2428 2841 2509 
Q 2775 2619 2662 2680 
Q 2550 2741 2406 2741 
Q 2056 2741 1856 2470 
Q 1656 2200 1656 1722 
L 1656 0 
L 538 0 
L 538 4863 
L 1656 4863 
L 1656 2988 
Q 1909 3294 2193 3439 
Q 2478 3584 2822 3584 
Q 3428 3584 3742 3212 
Q 4056 2841 4056 2131 
z
" transform="scale(0.015625)"/>
       <path id="DejaVuSans-Bold-6d" d="M 3781 2919 
Q 3994 3244 4286 3414 
Q 4578 3584 4928 3584 
Q 5531 3584 5847 3212 
Q 6163 2841 6163 2131 
L 6163 0 
L 5038 0 
L 5038 1825 
Q 5041 1866 5042 1909 
Q 5044 1953 5044 2034 
Q 5044 2406 4934 2573 
Q 4825 2741 4581 2741 
Q 4263 2741 4089 2478 
Q 3916 2216 3909 1719 
L 3909 0 
L 2784 0 
L 2784 1825 
Q 2784 2406 2684 2573 
Q 2584 2741 2328 2741 
Q 2006 2741 1831 2477 
Q 1656 2213 1656 1722 
L 1656 0 
L 531 0 
L 531 3500 
L 1656 3500 
L 1656 2988 
Q 1863 3284 2130 3434 
Q 2397 3584 2719 3584 
Q 3081 3584 3359 3409 
Q 3638 3234 3781 2919 
z
" transform="scale(0.015625)"/>
      </defs>
      <use xlink:href="#DejaVuSans-Bold-66"/>
      <use xlink:href="#DejaVuSans-Bold-6c" x="43.505859"/>
      <use xlink:href="#DejaVuSans-Bold-61" x="77.783203"/>
      <use xlink:href="#DejaVuSans-Bold-73" x="145.263672"/>
      <use xlink:href="#DejaVuSans-Bold-6b" x="204.785156"/>
      <use xlink:href="#DejaVuSans-Bold-5f" x="271.289062"/>
      <use xlink:href="#DejaVuSans-Bold-73" x="321.289062"/>
      <use xlink:href="#DejaVuSans-Bold-71" x="380.810547"/>
      <use xlink:href="#DejaVuSans-Bold-6c" x="452.392578"/>
      <use xlink:href="#DejaVuSans-Bold-61" x="486.669922"/>
      <use xlink:href="#DejaVuSans-Bold-6c" x="554.150391"/>
      <use xlink:href="#DejaVuSans-Bold-63" x="588.427734"/>
      <use xlink:href="#DejaVuSans-Bold-68" x="647.705078"/>
      <use xlink:href="#DejaVuSans-Bold-65" x="718.896484"/>
      <use xlink:href="#DejaVuSans-Bold-6d" x="786.71875"/>
      <use xlink:href="#DejaVuSans-Bold-79" x="890.917969"/>
     </g>
    </g>
   </g>
   <g id="text_7">
    <g clip-path="url(#p20533e3c70)">
     <!-- flask_wtf -->
     <g transform="translate(462.115297 461.718983) scale(0.1 -0.1)">
      <defs>
       <path id="DejaVuSans-Bold-77" d="M 225 3500 
L 1313 3500 
L 1900 1088 
L 2491 3500 
L 3425 3500 
L 4013 1113 
L 4603 3500 
L 5691 3500 
L 4769 0 
L 3547 0 
L 2956 2406 
L 2369 0 
L 1147 0 
L 225 3500 
z
" transform="scale(0.015625)"/>
      </defs>
      <use xlink:href="#DejaVuSans-Bold-66"/>
      <use xlink:href="#DejaVuSans-Bold-6c" x="43.505859"/>
      <use xlink:href="#DejaVuSans-Bold-61" x="77.783203"/>
      <use xlink:href="#DejaVuSans-Bold-73" x="145.263672"/>
      <use xlink:href="#DejaVuSans-Bold-6b" x="204.785156"/>
      <use xlink:href="#DejaVuSans-Bold-5f" x="271.289062"/>
      <use xlink:href="#DejaVuSans-Bold-77" x="321.289062"/>
      <use xlink:href="#DejaVuSans-Bold-74" x="413.671875"/>
      <use xlink:href="#DejaVuSans-Bold-66" x="461.474609"/>
     </g>
    </g>
   </g>
   <g id="text_8">
    <g clip-path="url(#p20533e3c70)">
     <!-- wtforms -->
     <g transform="translate(449.555919 410.581353) scale(0.1 -0.1)">
      <defs>
       <path id="DejaVuSans-Bold-72" d="M 3138 2547 
Q 2991 2616 2845 2648 
Q 2700 2681 2553 2681 
Q 2122 2681 1889 2404 
Q 1656 2128 1656 1613 
L 1656 0 
L 538 0 
L 538 3500 
L 1656 3500 
L 1656 2925 
Q 1872 3269 2151 3426 
Q 2431 3584 2822 3584 
Q 2878 3584 2943 3579 
Q 3009 3575 3134 3559 
L 3138 2547 
z
" transform="scale(0.015625)"/>
      </defs>
      <use xlink:href="#DejaVuSans-Bold-77"/>
      <use xlink:href="#DejaVuSans-Bold-74" x="92.382812"/>
      <use xlink:href="#DejaVuSans-Bold-66" x="140.185547"/>
      <use xlink:href="#DejaVuSans-Bold-6f" x="183.691406"/>
      <use xlink:href="#DejaVuSans-Bold-72" x="252.392578"/>
      <use xlink:href="#DejaVuSans-Bold-6d" x="301.708984"/>
      <use xlink:href="#DejaVuSans-Bold-73" x="405.908203"/>
     </g>
    </g>
   </g>
   <g id="text_9">
    <g clip-path="url(#p20533e3c70)">
     <!-- wtforms.validators -->
     <g transform="translate(427.619989 467.680928) scale(0.1 -0.1)">
      <defs>
       <path id="DejaVuSans-Bold-76" d="M 97 3500 
L 1216 3500 
L 2088 1081 
L 2956 3500 
L 4078 3500 
L 2700 0 
L 1472 0 
L 97 3500 
z
" transform="scale(0.015625)"/>
      </defs>
      <use xlink:href="#DejaVuSans-Bold-77"/>
      <use xlink:href="#DejaVuSans-Bold-74" x="92.382812"/>
      <use xlink:href="#DejaVuSans-Bold-66" x="140.185547"/>
      <use xlink:href="#DejaVuSans-Bold-6f" x="183.691406"/>
      <use xlink:href="#DejaVuSans-Bold-72" x="252.392578"/>
      <use xlink:href="#DejaVuSans-Bold-6d" x="301.708984"/>
      <use xlink:href="#DejaVuSans-Bold-73" x="405.908203"/>
      <use xlink:href="#DejaVuSans-Bold-2e" x="465.429688"/>
      <use xlink:href="#DejaVuSans-Bold-76" x="503.417969"/>
      <use xlink:href="#DejaVuSans-Bold-61" x="568.603516"/>
      <use xlink:href="#DejaVuSans-Bold-6c" x="636.083984"/>
      <use xlink:href="#DejaVuSans-Bold-69" x="670.361328"/>
      <use xlink:href="#DejaVuSans-Bold-64" x="704.638672"/>
      <use xlink:href="#DejaVuSans-Bold-61" x="776.220703"/>
      <use xlink:href="#DejaVuSans-Bold-74" x="843.701172"/>
      <use xlink:href="#DejaVuSans-Bold-6f" x="891.503906"/>
      <use xlink:href="#DejaVuSans-Bold-72" x="960.205078"/>
      <use xlink:href="#DejaVuSans-Bold-73" x="1009.521484"/>
     </g>
    </g>
   </g>
   <g id="text_10">
    <g clip-path="url(#p20533e3c70)">
     <!-- flask_ckeditor -->
     <g transform="translate(364.298715 421.78628) scale(0.1 -0.1)">
      <use xlink:href="#DejaVuSans-Bold-66"/>
      <use xlink:href="#DejaVuSans-Bold-6c" x="43.505859"/>
      <use xlink:href="#DejaVuSans-Bold-61" x="77.783203"/>
      <use xlink:href="#DejaVuSans-Bold-73" x="145.263672"/>
      <use xlink:href="#DejaVuSans-Bold-6b" x="204.785156"/>
      <use xlink:href="#DejaVuSans-Bold-5f" x="271.289062"/>
      <use xlink:href="#DejaVuSans-Bold-63" x="321.289062"/>
      <use xlink:href="#DejaVuSans-Bold-6b" x="380.566406"/>
      <use xlink:href="#DejaVuSans-Bold-65" x="444.445312"/>
      <use xlink:href="#DejaVuSans-Bold-64" x="512.267578"/>
      <use xlink:href="#DejaVuSans-Bold-69" x="583.849609"/>
      <use xlink:href="#DejaVuSans-Bold-74" x="618.126953"/>
      <use xlink:href="#DejaVuSans-Bold-6f" x="665.929688"/>
      <use xlink:href="#DejaVuSans-Bold-72" x="734.630859"/>
     </g>
    </g>
   </g>
   <g id="text_11">
    <g clip-path="url(#p20533e3c70)">
     <!-- form.forms -->
     <g transform="translate(231.839223 184.278828) scale(0.1 -0.1)">
      <use xlink:href="#DejaVuSans-Bold-66"/>
      <use xlink:href="#DejaVuSans-Bold-6f" x="43.505859"/>
      <use xlink:href="#DejaVuSans-Bold-72" x="112.207031"/>
      <use xlink:href="#DejaVuSans-Bold-6d" x="161.523438"/>
      <use xlink:href="#DejaVuSans-Bold-2e" x="265.722656"/>
      <use xlink:href="#DejaVuSans-Bold-66" x="303.710938"/>
      <use xlink:href="#DejaVuSans-Bold-6f" x="347.216797"/>
      <use xlink:href="#DejaVuSans-Bold-72" x="415.917969"/>
      <use xlink:href="#DejaVuSans-Bold-6d" x="465.234375"/>
      <use xlink:href="#DejaVuSans-Bold-73" x="569.433594"/>
     </g>
    </g>
   </g>
   <g id="text_12">
    <g clip-path="url(#p20533e3c70)">
     <!-- flask_wtf.file -->
     <g transform="translate(371.103317 315.597281) scale(0.1 -0.1)">
      <use xlink:href="#DejaVuSans-Bold-66"/>
      <use xlink:href="#DejaVuSans-Bold-6c" x="43.505859"/>
      <use xlink:href="#DejaVuSans-Bold-61" x="77.783203"/>
      <use xlink:href="#DejaVuSans-Bold-73" x="145.263672"/>
      <use xlink:href="#DejaVuSans-Bold-6b" x="204.785156"/>
      <use xlink:href="#DejaVuSans-Bold-5f" x="271.289062"/>
      <use xlink:href="#DejaVuSans-Bold-77" x="321.289062"/>
      <use xlink:href="#DejaVuSans-Bold-74" x="413.671875"/>
      <use xlink:href="#DejaVuSans-Bold-66" x="461.474609"/>
      <use xlink:href="#DejaVuSans-Bold-2e" x="499.480469"/>
      <use xlink:href="#DejaVuSans-Bold-66" x="537.46875"/>
      <use xlink:href="#DejaVuSans-Bold-69" x="580.974609"/>
      <use xlink:href="#DejaVuSans-Bold-6c" x="615.251953"/>
      <use xlink:href="#DejaVuSans-Bold-65" x="649.529297"/>
     </g>
    </g>
   </g>
   <g id="text_13">
    <g clip-path="url(#p20533e3c70)">
     <!-- form.app -->
     <g transform="translate(365.81646 144.1103) scale(0.1 -0.1)">
      <use xlink:href="#DejaVuSans-Bold-66"/>
      <use xlink:href="#DejaVuSans-Bold-6f" x="43.505859"/>
      <use xlink:href="#DejaVuSans-Bold-72" x="112.207031"/>
      <use xlink:href="#DejaVuSans-Bold-6d" x="161.523438"/>
      <use xlink:href="#DejaVuSans-Bold-2e" x="265.722656"/>
      <use xlink:href="#DejaVuSans-Bold-61" x="303.710938"/>
      <use xlink:href="#DejaVuSans-Bold-70" x="371.191406"/>
      <use xlink:href="#DejaVuSans-Bold-70" x="442.773438"/>
     </g>
    </g>
   </g>
   <g id="text_14">
    <g clip-path="url(#p20533e3c70)">
     <!-- uuid -->
     <g transform="translate(487.539192 244.082772) scale(0.1 -0.1)">
      <defs>
       <path id="DejaVuSans-Bold-75" d="M 500 1363 
L 500 3500 
L 1625 3500 
L 1625 3150 
Q 1625 2866 1622 2436 
Q 1619 2006 1619 1863 
Q 1619 1441 1641 1255 
Q 1663 1069 1716 984 
Q 1784 875 1895 815 
Q 2006 756 2150 756 
Q 2500 756 2700 1025 
Q 2900 1294 2900 1772 
L 2900 3500 
L 4019 3500 
L 4019 0 
L 2900 0 
L 2900 506 
Q 2647 200 2364 54 
Q 2081 -91 1741 -91 
Q 1134 -91 817 281 
Q 500 653 500 1363 
z
" transform="scale(0.015625)"/>
      </defs>
      <use xlink:href="#DejaVuSans-Bold-75"/>
      <use xlink:href="#DejaVuSans-Bold-75" x="71.191406"/>
      <use xlink:href="#DejaVuSans-Bold-69" x="142.382812"/>
      <use xlink:href="#DejaVuSans-Bold-64" x="176.660156"/>
     </g>
    </g>
   </g>
   <g id="text_15">
    <g clip-path="url(#p20533e3c70)">
     <!-- flask_dropzone -->
     <g transform="translate(330.398283 184.835821) scale(0.1 -0.1)">
      <defs>
       <path id="DejaVuSans-Bold-7a" d="M 366 3500 
L 3419 3500 
L 3419 2719 
L 1575 800 
L 3419 800 
L 3419 0 
L 288 0 
L 288 781 
L 2131 2700 
L 366 2700 
L 366 3500 
z
" transform="scale(0.015625)"/>
       <path id="DejaVuSans-Bold-6e" d="M 4056 2131 
L 4056 0 
L 2931 0 
L 2931 347 
L 2931 1631 
Q 2931 2084 2911 2256 
Q 2891 2428 2841 2509 
Q 2775 2619 2662 2680 
Q 2550 2741 2406 2741 
Q 2056 2741 1856 2470 
Q 1656 2200 1656 1722 
L 1656 0 
L 538 0 
L 538 3500 
L 1656 3500 
L 1656 2988 
Q 1909 3294 2193 3439 
Q 2478 3584 2822 3584 
Q 3428 3584 3742 3212 
Q 4056 2841 4056 2131 
z
" transform="scale(0.015625)"/>
      </defs>
      <use xlink:href="#DejaVuSans-Bold-66"/>
      <use xlink:href="#DejaVuSans-Bold-6c" x="43.505859"/>
      <use xlink:href="#DejaVuSans-Bold-61" x="77.783203"/>
      <use xlink:href="#DejaVuSans-Bold-73" x="145.263672"/>
      <use xlink:href="#DejaVuSans-Bold-6b" x="204.785156"/>
      <use xlink:href="#DejaVuSans-Bold-5f" x="271.289062"/>
      <use xlink:href="#DejaVuSans-Bold-64" x="321.289062"/>
      <use xlink:href="#DejaVuSans-Bold-72" x="392.871094"/>
      <use xlink:href="#DejaVuSans-Bold-6f" x="442.1875"/>
      <use xlink:href="#DejaVuSans-Bold-70" x="510.888672"/>
      <use xlink:href="#DejaVuSans-Bold-7a" x="582.470703"/>
      <use xlink:href="#DejaVuSans-Bold-6f" x="640.673828"/>
      <use xlink:href="#DejaVuSans-Bold-6e" x="709.375"/>
      <use xlink:href="#DejaVuSans-Bold-65" x="780.566406"/>
     </g>
    </g>
   </g>
   <g id="text_16">
    <g clip-path="url(#p20533e3c70)">
     <!-- flask_wtf.csrf -->
     <g transform="translate(440.853887 136.655141) scale(0.1 -0.1)">
      <use xlink:href="#DejaVuSans-Bold-66"/>
      <use xlink:href="#DejaVuSans-Bold-6c" x="43.505859"/>
      <use xlink:href="#DejaVuSans-Bold-61" x="77.783203"/>
      <use xlink:href="#DejaVuSans-Bold-73" x="145.263672"/>
      <use xlink:href="#DejaVuSans-Bold-6b" x="204.785156"/>
      <use xlink:href="#DejaVuSans-Bold-5f" x="271.289062"/>
      <use xlink:href="#DejaVuSans-Bold-77" x="321.289062"/>
      <use xlink:href="#DejaVuSans-Bold-74" x="413.671875"/>
      <use xlink:href="#DejaVuSans-Bold-66" x="461.474609"/>
      <use xlink:href="#DejaVuSans-Bold-2e" x="499.480469"/>
      <use xlink:href="#DejaVuSans-Bold-63" x="537.46875"/>
      <use xlink:href="#DejaVuSans-Bold-73" x="596.746094"/>
      <use xlink:href="#DejaVuSans-Bold-72" x="656.267578"/>
      <use xlink:href="#DejaVuSans-Bold-66" x="705.583984"/>
     </g>
    </g>
   </g>
   <g id="text_17">
    <g clip-path="url(#p20533e3c70)">
     <!-- forms -->
     <g transform="translate(334.108238 207.009312) scale(0.1 -0.1)">
      <use xlink:href="#DejaVuSans-Bold-66"/>
      <use xlink:href="#DejaVuSans-Bold-6f" x="43.505859"/>
      <use xlink:href="#DejaVuSans-Bold-72" x="112.207031"/>
      <use xlink:href="#DejaVuSans-Bold-6d" x="161.523438"/>
      <use xlink:href="#DejaVuSans-Bold-73" x="265.722656"/>
     </g>
    </g>
   </g>
   <g id="text_18">
    <g clip-path="url(#p20533e3c70)">
     <!-- time -->
     <g transform="translate(255.570092 492.732131) scale(0.1 -0.1)">
      <use xlink:href="#DejaVuSans-Bold-74"/>
      <use xlink:href="#DejaVuSans-Bold-69" x="47.802734"/>
      <use xlink:href="#DejaVuSans-Bold-6d" x="82.080078"/>
      <use xlink:href="#DejaVuSans-Bold-65" x="186.279297"/>
     </g>
    </g>
   </g>
   <g id="text_19">
    <g clip-path="url(#p20533e3c70)">
     <!-- cache.app -->
     <g transform="translate(46.290832 478.533733) scale(0.1 -0.1)">
      <use xlink:href="#DejaVuSans-Bold-63"/>
      <use xlink:href="#DejaVuSans-Bold-61" x="59.277344"/>
      <use xlink:href="#DejaVuSans-Bold-63" x="126.757812"/>
      <use xlink:href="#DejaVuSans-Bold-68" x="186.035156"/>
      <use xlink:href="#DejaVuSans-Bold-65" x="257.226562"/>
      <use xlink:href="#DejaVuSans-Bold-2e" x="325.048828"/>
      <use xlink:href="#DejaVuSans-Bold-61" x="363.037109"/>
      <use xlink:href="#DejaVuSans-Bold-70" x="430.517578"/>
      <use xlink:href="#DejaVuSans-Bold-70" x="502.099609"/>
     </g>
    </g>
   </g>
   <g id="text_20">
    <g clip-path="url(#p20533e3c70)">
     <!-- flask_caching -->
     <g transform="translate(210.711436 440.569176) scale(0.1 -0.1)">
      <defs>
       <path id="DejaVuSans-Bold-67" d="M 2919 594 
Q 2688 288 2409 144 
Q 2131 0 1766 0 
Q 1125 0 706 504 
Q 288 1009 288 1791 
Q 288 2575 706 3076 
Q 1125 3578 1766 3578 
Q 2131 3578 2409 3434 
Q 2688 3291 2919 2981 
L 2919 3500 
L 4044 3500 
L 4044 353 
Q 4044 -491 3511 -936 
Q 2978 -1381 1966 -1381 
Q 1638 -1381 1331 -1331 
Q 1025 -1281 716 -1178 
L 716 -306 
Q 1009 -475 1290 -558 
Q 1572 -641 1856 -641 
Q 2406 -641 2662 -400 
Q 2919 -159 2919 353 
L 2919 594 
z
M 2181 2772 
Q 1834 2772 1640 2515 
Q 1447 2259 1447 1791 
Q 1447 1309 1634 1061 
Q 1822 813 2181 813 
Q 2531 813 2725 1069 
Q 2919 1325 2919 1791 
Q 2919 2259 2725 2515 
Q 2531 2772 2181 2772 
z
" transform="scale(0.015625)"/>
      </defs>
      <use xlink:href="#DejaVuSans-Bold-66"/>
      <use xlink:href="#DejaVuSans-Bold-6c" x="43.505859"/>
      <use xlink:href="#DejaVuSans-Bold-61" x="77.783203"/>
      <use xlink:href="#DejaVuSans-Bold-73" x="145.263672"/>
      <use xlink:href="#DejaVuSans-Bold-6b" x="204.785156"/>
      <use xlink:href="#DejaVuSans-Bold-5f" x="271.289062"/>
      <use xlink:href="#DejaVuSans-Bold-63" x="321.289062"/>
      <use xlink:href="#DejaVuSans-Bold-61" x="380.566406"/>
      <use xlink:href="#DejaVuSans-Bold-63" x="448.046875"/>
      <use xlink:href="#DejaVuSans-Bold-68" x="507.324219"/>
      <use xlink:href="#DejaVuSans-Bold-69" x="578.515625"/>
      <use xlink:href="#DejaVuSans-Bold-6e" x="612.792969"/>
      <use xlink:href="#DejaVuSans-Bold-67" x="683.984375"/>
     </g>
    </g>
   </g>
   <g id="text_21">
    <g clip-path="url(#p20533e3c70)">
     <!-- flask_debugtoolbar -->
     <g transform="translate(206.47407 463.287711) scale(0.1 -0.1)">
      <use xlink:href="#DejaVuSans-Bold-66"/>
      <use xlink:href="#DejaVuSans-Bold-6c" x="43.505859"/>
      <use xlink:href="#DejaVuSans-Bold-61" x="77.783203"/>
      <use xlink:href="#DejaVuSans-Bold-73" x="145.263672"/>
      <use xlink:href="#DejaVuSans-Bold-6b" x="204.785156"/>
      <use xlink:href="#DejaVuSans-Bold-5f" x="271.289062"/>
      <use xlink:href="#DejaVuSans-Bold-64" x="321.289062"/>
      <use xlink:href="#DejaVuSans-Bold-65" x="392.871094"/>
      <use xlink:href="#DejaVuSans-Bold-62" x="460.693359"/>
      <use xlink:href="#DejaVuSans-Bold-75" x="532.275391"/>
      <use xlink:href="#DejaVuSans-Bold-67" x="603.466797"/>
      <use xlink:href="#DejaVuSans-Bold-74" x="675.048828"/>
      <use xlink:href="#DejaVuSans-Bold-6f" x="722.851562"/>
      <use xlink:href="#DejaVuSans-Bold-6f" x="791.552734"/>
      <use xlink:href="#DejaVuSans-Bold-6c" x="860.253906"/>
      <use xlink:href="#DejaVuSans-Bold-62" x="894.53125"/>
      <use xlink:href="#DejaVuSans-Bold-61" x="966.113281"/>
      <use xlink:href="#DejaVuSans-Bold-72" x="1033.59375"/>
     </g>
    </g>
   </g>
   <g id="text_22">
    <g clip-path="url(#p20533e3c70)">
     <!-- template.app -->
     <g transform="translate(546.883317 717.091186) scale(0.1 -0.1)">
      <use xlink:href="#DejaVuSans-Bold-74"/>
      <use xlink:href="#DejaVuSans-Bold-65" x="47.802734"/>
      <use xlink:href="#DejaVuSans-Bold-6d" x="115.625"/>
      <use xlink:href="#DejaVuSans-Bold-70" x="219.824219"/>
      <use xlink:href="#DejaVuSans-Bold-6c" x="291.40625"/>
      <use xlink:href="#DejaVuSans-Bold-61" x="325.683594"/>
      <use xlink:href="#DejaVuSans-Bold-74" x="393.164062"/>
      <use xlink:href="#DejaVuSans-Bold-65" x="440.966797"/>
      <use xlink:href="#DejaVuSans-Bold-2e" x="508.789062"/>
      <use xlink:href="#DejaVuSans-Bold-61" x="546.777344"/>
      <use xlink:href="#DejaVuSans-Bold-70" x="614.257812"/>
      <use xlink:href="#DejaVuSans-Bold-70" x="685.839844"/>
     </g>
    </g>
   </g>
   <g id="text_23">
    <g clip-path="url(#p20533e3c70)">
     <!-- http.app -->
     <g transform="translate(317.749369 88.033798) scale(0.1 -0.1)">
      <use xlink:href="#DejaVuSans-Bold-68"/>
      <use xlink:href="#DejaVuSans-Bold-74" x="71.191406"/>
      <use xlink:href="#DejaVuSans-Bold-74" x="118.994141"/>
      <use xlink:href="#DejaVuSans-Bold-70" x="166.796875"/>
      <use xlink:href="#DejaVuSans-Bold-2e" x="238.378906"/>
      <use xlink:href="#DejaVuSans-Bold-61" x="276.367188"/>
      <use xlink:href="#DejaVuSans-Bold-70" x="343.847656"/>
      <use xlink:href="#DejaVuSans-Bold-70" x="415.429688"/>
     </g>
    </g>
   </g>
   <g id="text_24">
    <g clip-path="url(#p20533e3c70)">
     <!-- jinja2.utils -->
     <g transform="translate(390.80684 147.503244) scale(0.1 -0.1)">
      <defs>
       <path id="DejaVuSans-Bold-6a" d="M 538 3500 
L 1656 3500 
L 1656 63 
Q 1656 -641 1318 -1011 
Q 981 -1381 341 -1381 
L -213 -1381 
L -213 -647 
L -19 -647 
Q 300 -647 419 -503 
Q 538 -359 538 63 
L 538 3500 
z
M 538 4863 
L 1656 4863 
L 1656 3950 
L 538 3950 
L 538 4863 
z
" transform="scale(0.015625)"/>
       <path id="DejaVuSans-Bold-32" d="M 1844 884 
L 3897 884 
L 3897 0 
L 506 0 
L 506 884 
L 2209 2388 
Q 2438 2594 2547 2791 
Q 2656 2988 2656 3200 
Q 2656 3528 2436 3728 
Q 2216 3928 1850 3928 
Q 1569 3928 1234 3808 
Q 900 3688 519 3450 
L 519 4475 
Q 925 4609 1322 4679 
Q 1719 4750 2100 4750 
Q 2938 4750 3402 4381 
Q 3866 4013 3866 3353 
Q 3866 2972 3669 2642 
Q 3472 2313 2841 1759 
L 1844 884 
z
" transform="scale(0.015625)"/>
      </defs>
      <use xlink:href="#DejaVuSans-Bold-6a"/>
      <use xlink:href="#DejaVuSans-Bold-69" x="34.277344"/>
      <use xlink:href="#DejaVuSans-Bold-6e" x="68.554688"/>
      <use xlink:href="#DejaVuSans-Bold-6a" x="139.746094"/>
      <use xlink:href="#DejaVuSans-Bold-61" x="174.023438"/>
      <use xlink:href="#DejaVuSans-Bold-32" x="241.503906"/>
      <use xlink:href="#DejaVuSans-Bold-2e" x="311.083984"/>
      <use xlink:href="#DejaVuSans-Bold-75" x="349.072266"/>
      <use xlink:href="#DejaVuSans-Bold-74" x="420.263672"/>
      <use xlink:href="#DejaVuSans-Bold-69" x="468.066406"/>
      <use xlink:href="#DejaVuSans-Bold-6c" x="502.34375"/>
      <use xlink:href="#DejaVuSans-Bold-73" x="536.621094"/>
     </g>
    </g>
   </g>
   <g id="text_25">
    <g clip-path="url(#p20533e3c70)">
     <!-- urlparse -->
     <g transform="translate(428.592663 243.146147) scale(0.1 -0.1)">
      <use xlink:href="#DejaVuSans-Bold-75"/>
      <use xlink:href="#DejaVuSans-Bold-72" x="71.191406"/>
      <use xlink:href="#DejaVuSans-Bold-6c" x="120.507812"/>
      <use xlink:href="#DejaVuSans-Bold-70" x="154.785156"/>
      <use xlink:href="#DejaVuSans-Bold-61" x="226.367188"/>
      <use xlink:href="#DejaVuSans-Bold-72" x="293.847656"/>
      <use xlink:href="#DejaVuSans-Bold-73" x="343.164062"/>
      <use xlink:href="#DejaVuSans-Bold-65" x="402.685547"/>
     </g>
    </g>
   </g>
   <g id="text_26">
    <g clip-path="url(#p20533e3c70)">
     <!-- jinja2 -->
     <g transform="translate(375.124357 227.28917) scale(0.1 -0.1)">
      <use xlink:href="#DejaVuSans-Bold-6a"/>
      <use xlink:href="#DejaVuSans-Bold-69" x="34.277344"/>
      <use xlink:href="#DejaVuSans-Bold-6e" x="68.554688"/>
      <use xlink:href="#DejaVuSans-Bold-6a" x="139.746094"/>
      <use xlink:href="#DejaVuSans-Bold-61" x="174.023438"/>
      <use xlink:href="#DejaVuSans-Bold-32" x="241.503906"/>
     </g>
    </g>
   </g>
   <g id="text_27">
    <g clip-path="url(#p20533e3c70)">
     <!-- urllib.parse -->
     <g transform="translate(413.65492 181.988239) scale(0.1 -0.1)">
      <use xlink:href="#DejaVuSans-Bold-75"/>
      <use xlink:href="#DejaVuSans-Bold-72" x="71.191406"/>
      <use xlink:href="#DejaVuSans-Bold-6c" x="120.507812"/>
      <use xlink:href="#DejaVuSans-Bold-6c" x="154.785156"/>
      <use xlink:href="#DejaVuSans-Bold-69" x="189.0625"/>
      <use xlink:href="#DejaVuSans-Bold-62" x="223.339844"/>
      <use xlink:href="#DejaVuSans-Bold-2e" x="294.921875"/>
      <use xlink:href="#DejaVuSans-Bold-70" x="332.910156"/>
      <use xlink:href="#DejaVuSans-Bold-61" x="404.492188"/>
      <use xlink:href="#DejaVuSans-Bold-72" x="471.972656"/>
      <use xlink:href="#DejaVuSans-Bold-73" x="521.289062"/>
      <use xlink:href="#DejaVuSans-Bold-65" x="580.810547"/>
     </g>
    </g>
   </g>
   <g id="text_28">
    <g clip-path="url(#p20533e3c70)">
     <!-- markupsafe -->
     <g transform="translate(374.089815 77.734582) scale(0.1 -0.1)">
      <use xlink:href="#DejaVuSans-Bold-6d"/>
      <use xlink:href="#DejaVuSans-Bold-61" x="104.199219"/>
      <use xlink:href="#DejaVuSans-Bold-72" x="171.679688"/>
      <use xlink:href="#DejaVuSans-Bold-6b" x="220.996094"/>
      <use xlink:href="#DejaVuSans-Bold-75" x="287.5"/>
      <use xlink:href="#DejaVuSans-Bold-70" x="358.691406"/>
      <use xlink:href="#DejaVuSans-Bold-73" x="430.273438"/>
      <use xlink:href="#DejaVuSans-Bold-61" x="489.794922"/>
      <use xlink:href="#DejaVuSans-Bold-66" x="557.275391"/>
      <use xlink:href="#DejaVuSans-Bold-65" x="600.78125"/>
     </g>
    </g>
   </g>
   <g id="text_29">
    <g clip-path="url(#p20533e3c70)">
     <!-- hello.app -->
     <g transform="translate(756.730836 386.517694) scale(0.1 -0.1)">
      <use xlink:href="#DejaVuSans-Bold-68"/>
      <use xlink:href="#DejaVuSans-Bold-65" x="71.191406"/>
      <use xlink:href="#DejaVuSans-Bold-6c" x="139.013672"/>
      <use xlink:href="#DejaVuSans-Bold-6c" x="173.291016"/>
      <use xlink:href="#DejaVuSans-Bold-6f" x="207.568359"/>
      <use xlink:href="#DejaVuSans-Bold-2e" x="276.269531"/>
      <use xlink:href="#DejaVuSans-Bold-61" x="314.257812"/>
      <use xlink:href="#DejaVuSans-Bold-70" x="381.738281"/>
      <use xlink:href="#DejaVuSans-Bold-70" x="453.320312"/>
     </g>
    </g>
   </g>
   <g id="text_30">
    <g clip-path="url(#p20533e3c70)">
     <!-- assets.app -->
     <g transform="translate(485.295647 791.784168) scale(0.1 -0.1)">
      <use xlink:href="#DejaVuSans-Bold-61"/>
      <use xlink:href="#DejaVuSans-Bold-73" x="67.480469"/>
      <use xlink:href="#DejaVuSans-Bold-73" x="127.001953"/>
      <use xlink:href="#DejaVuSans-Bold-65" x="186.523438"/>
      <use xlink:href="#DejaVuSans-Bold-74" x="254.345703"/>
      <use xlink:href="#DejaVuSans-Bold-73" x="302.148438"/>
      <use xlink:href="#DejaVuSans-Bold-2e" x="361.669922"/>
      <use xlink:href="#DejaVuSans-Bold-61" x="399.658203"/>
      <use xlink:href="#DejaVuSans-Bold-70" x="467.138672"/>
      <use xlink:href="#DejaVuSans-Bold-70" x="538.720703"/>
     </g>
    </g>
   </g>
   <g id="text_31">
    <g clip-path="url(#p20533e3c70)">
     <!-- flask_assets -->
     <g transform="translate(507.170909 664.049552) scale(0.1 -0.1)">
      <use xlink:href="#DejaVuSans-Bold-66"/>
      <use xlink:href="#DejaVuSans-Bold-6c" x="43.505859"/>
      <use xlink:href="#DejaVuSans-Bold-61" x="77.783203"/>
      <use xlink:href="#DejaVuSans-Bold-73" x="145.263672"/>
      <use xlink:href="#DejaVuSans-Bold-6b" x="204.785156"/>
      <use xlink:href="#DejaVuSans-Bold-5f" x="271.289062"/>
      <use xlink:href="#DejaVuSans-Bold-61" x="321.289062"/>
      <use xlink:href="#DejaVuSans-Bold-73" x="388.769531"/>
      <use xlink:href="#DejaVuSans-Bold-73" x="448.291016"/>
      <use xlink:href="#DejaVuSans-Bold-65" x="507.8125"/>
      <use xlink:href="#DejaVuSans-Bold-74" x="575.634766"/>
      <use xlink:href="#DejaVuSans-Bold-73" x="623.4375"/>
     </g>
    </g>
   </g>
   <g id="text_32">
    <g clip-path="url(#p20533e3c70)">
     <!-- email.app -->
     <g transform="translate(761.189637 598.726479) scale(0.1 -0.1)">
      <use xlink:href="#DejaVuSans-Bold-65"/>
      <use xlink:href="#DejaVuSans-Bold-6d" x="67.822266"/>
      <use xlink:href="#DejaVuSans-Bold-61" x="172.021484"/>
      <use xlink:href="#DejaVuSans-Bold-69" x="239.501953"/>
      <use xlink:href="#DejaVuSans-Bold-6c" x="273.779297"/>
      <use xlink:href="#DejaVuSans-Bold-2e" x="308.056641"/>
      <use xlink:href="#DejaVuSans-Bold-61" x="346.044922"/>
      <use xlink:href="#DejaVuSans-Bold-70" x="413.525391"/>
      <use xlink:href="#DejaVuSans-Bold-70" x="485.107422"/>
     </g>
    </g>
   </g>
   <g id="text_33">
    <g clip-path="url(#p20533e3c70)">
     <!-- threading -->
     <g transform="translate(641.301878 609.747589) scale(0.1 -0.1)">
      <use xlink:href="#DejaVuSans-Bold-74"/>
      <use xlink:href="#DejaVuSans-Bold-68" x="47.802734"/>
      <use xlink:href="#DejaVuSans-Bold-72" x="118.994141"/>
      <use xlink:href="#DejaVuSans-Bold-65" x="168.310547"/>
      <use xlink:href="#DejaVuSans-Bold-61" x="236.132812"/>
      <use xlink:href="#DejaVuSans-Bold-64" x="303.613281"/>
      <use xlink:href="#DejaVuSans-Bold-69" x="375.195312"/>
      <use xlink:href="#DejaVuSans-Bold-6e" x="409.472656"/>
      <use xlink:href="#DejaVuSans-Bold-67" x="480.664062"/>
     </g>
    </g>
   </g>
   <g id="text_34">
    <g clip-path="url(#p20533e3c70)">
     <!-- sendgrid -->
     <g transform="translate(669.23041 592.837591) scale(0.1 -0.1)">
      <use xlink:href="#DejaVuSans-Bold-73"/>
      <use xlink:href="#DejaVuSans-Bold-65" x="59.521484"/>
      <use xlink:href="#DejaVuSans-Bold-6e" x="127.34375"/>
      <use xlink:href="#DejaVuSans-Bold-64" x="198.535156"/>
      <use xlink:href="#DejaVuSans-Bold-67" x="270.117188"/>
      <use xlink:href="#DejaVuSans-Bold-72" x="341.699219"/>
      <use xlink:href="#DejaVuSans-Bold-69" x="391.015625"/>
      <use xlink:href="#DejaVuSans-Bold-64" x="425.292969"/>
     </g>
    </g>
   </g>
   <g id="text_35">
    <g clip-path="url(#p20533e3c70)">
     <!-- sendgrid.helpers.mail -->
     <g transform="translate(633.333142 530.874049) scale(0.1 -0.1)">
      <use xlink:href="#DejaVuSans-Bold-73"/>
      <use xlink:href="#DejaVuSans-Bold-65" x="59.521484"/>
      <use xlink:href="#DejaVuSans-Bold-6e" x="127.34375"/>
      <use xlink:href="#DejaVuSans-Bold-64" x="198.535156"/>
      <use xlink:href="#DejaVuSans-Bold-67" x="270.117188"/>
      <use xlink:href="#DejaVuSans-Bold-72" x="341.699219"/>
      <use xlink:href="#DejaVuSans-Bold-69" x="391.015625"/>
      <use xlink:href="#DejaVuSans-Bold-64" x="425.292969"/>
      <use xlink:href="#DejaVuSans-Bold-2e" x="496.875"/>
      <use xlink:href="#DejaVuSans-Bold-68" x="534.863281"/>
      <use xlink:href="#DejaVuSans-Bold-65" x="606.054688"/>
      <use xlink:href="#DejaVuSans-Bold-6c" x="673.876953"/>
      <use xlink:href="#DejaVuSans-Bold-70" x="708.154297"/>
      <use xlink:href="#DejaVuSans-Bold-65" x="779.736328"/>
      <use xlink:href="#DejaVuSans-Bold-72" x="847.558594"/>
      <use xlink:href="#DejaVuSans-Bold-73" x="896.875"/>
      <use xlink:href="#DejaVuSans-Bold-2e" x="956.396484"/>
      <use xlink:href="#DejaVuSans-Bold-6d" x="994.384766"/>
      <use xlink:href="#DejaVuSans-Bold-61" x="1098.583984"/>
      <use xlink:href="#DejaVuSans-Bold-69" x="1166.064453"/>
      <use xlink:href="#DejaVuSans-Bold-6c" x="1200.341797"/>
     </g>
    </g>
   </g>
   <g id="text_36">
    <g clip-path="url(#p20533e3c70)">
     <!-- flask_mail -->
     <g transform="translate(633.609005 568.894815) scale(0.1 -0.1)">
      <use xlink:href="#DejaVuSans-Bold-66"/>
      <use xlink:href="#DejaVuSans-Bold-6c" x="43.505859"/>
      <use xlink:href="#DejaVuSans-Bold-61" x="77.783203"/>
      <use xlink:href="#DejaVuSans-Bold-73" x="145.263672"/>
      <use xlink:href="#DejaVuSans-Bold-6b" x="204.785156"/>
      <use xlink:href="#DejaVuSans-Bold-5f" x="271.289062"/>
      <use xlink:href="#DejaVuSans-Bold-6d" x="321.289062"/>
      <use xlink:href="#DejaVuSans-Bold-61" x="425.488281"/>
      <use xlink:href="#DejaVuSans-Bold-69" x="492.96875"/>
      <use xlink:href="#DejaVuSans-Bold-6c" x="527.246094"/>
     </g>
    </g>
   </g>
   <g id="text_37">
    <!-- Python Codebase Import Graph -->
    <g transform="translate(313.873828 -6) scale(0.15 -0.15)">
     <defs>
      <path id="DejaVuSans-50" d="M 1259 4147 
L 1259 2394 
L 2053 2394 
Q 2494 2394 2734 2622 
Q 2975 2850 2975 3272 
Q 2975 3691 2734 3919 
Q 2494 4147 2053 4147 
L 1259 4147 
z
M 628 4666 
L 2053 4666 
Q 2838 4666 3239 4311 
Q 3641 3956 3641 3272 
Q 3641 2581 3239 2228 
Q 2838 1875 2053 1875 
L 1259 1875 
L 1259 0 
L 628 0 
L 628 4666 
z
" transform="scale(0.015625)"/>
      <path id="DejaVuSans-79" d="M 2059 -325 
Q 1816 -950 1584 -1140 
Q 1353 -1331 966 -1331 
L 506 -1331 
L 506 -850 
L 844 -850 
Q 1081 -850 1212 -737 
Q 1344 -625 1503 -206 
L 1606 56 
L 191 3500 
L 800 3500 
L 1894 763 
L 2988 3500 
L 3597 3500 
L 2059 -325 
z
" transform="scale(0.015625)"/>
      <path id="DejaVuSans-74" d="M 1172 4494 
L 1172 3500 
L 2356 3500 
L 2356 3053 
L 1172 3053 
L 1172 1153 
Q 1172 725 1289 603 
Q 1406 481 1766 481 
L 2356 481 
L 2356 0 
L 1766 0 
Q 1100 0 847 248 
Q 594 497 594 1153 
L 594 3053 
L 172 3053 
L 172 3500 
L 594 3500 
L 594 4494 
L 1172 4494 
z
" transform="scale(0.015625)"/>
      <path id="DejaVuSans-68" d="M 3513 2113 
L 3513 0 
L 2938 0 
L 2938 2094 
Q 2938 2591 2744 2837 
Q 2550 3084 2163 3084 
Q 1697 3084 1428 2787 
Q 1159 2491 1159 1978 
L 1159 0 
L 581 0 
L 581 4863 
L 1159 4863 
L 1159 2956 
Q 1366 3272 1645 3428 
Q 1925 3584 2291 3584 
Q 2894 3584 3203 3211 
Q 3513 2838 3513 2113 
z
" transform="scale(0.015625)"/>
      <path id="DejaVuSans-6f" d="M 1959 3097 
Q 1497 3097 1228 2736 
Q 959 2375 959 1747 
Q 959 1119 1226 758 
Q 1494 397 1959 397 
Q 2419 397 2687 759 
Q 2956 1122 2956 1747 
Q 2956 2369 2687 2733 
Q 2419 3097 1959 3097 
z
M 1959 3584 
Q 2709 3584 3137 3096 
Q 3566 2609 3566 1747 
Q 3566 888 3137 398 
Q 2709 -91 1959 -91 
Q 1206 -91 779 398 
Q 353 888 353 1747 
Q 353 2609 779 3096 
Q 1206 3584 1959 3584 
z
" transform="scale(0.015625)"/>
      <path id="DejaVuSans-6e" d="M 3513 2113 
L 3513 0 
L 2938 0 
L 2938 2094 
Q 2938 2591 2744 2837 
Q 2550 3084 2163 3084 
Q 1697 3084 1428 2787 
Q 1159 2491 1159 1978 
L 1159 0 
L 581 0 
L 581 3500 
L 1159 3500 
L 1159 2956 
Q 1366 3272 1645 3428 
Q 1925 3584 2291 3584 
Q 2894 3584 3203 3211 
Q 3513 2838 3513 2113 
z
" transform="scale(0.015625)"/>
      <path id="DejaVuSans-20" transform="scale(0.015625)"/>
      <path id="DejaVuSans-43" d="M 4122 4306 
L 4122 3641 
Q 3803 3938 3442 4084 
Q 3081 4231 2675 4231 
Q 1875 4231 1450 3742 
Q 1025 3253 1025 2328 
Q 1025 1406 1450 917 
Q 1875 428 2675 428 
Q 3081 428 3442 575 
Q 3803 722 4122 1019 
L 4122 359 
Q 3791 134 3420 21 
Q 3050 -91 2638 -91 
Q 1578 -91 968 557 
Q 359 1206 359 2328 
Q 359 3453 968 4101 
Q 1578 4750 2638 4750 
Q 3056 4750 3426 4639 
Q 3797 4528 4122 4306 
z
" transform="scale(0.015625)"/>
      <path id="DejaVuSans-64" d="M 2906 2969 
L 2906 4863 
L 3481 4863 
L 3481 0 
L 2906 0 
L 2906 525 
Q 2725 213 2448 61 
Q 2172 -91 1784 -91 
Q 1150 -91 751 415 
Q 353 922 353 1747 
Q 353 2572 751 3078 
Q 1150 3584 1784 3584 
Q 2172 3584 2448 3432 
Q 2725 3281 2906 2969 
z
M 947 1747 
Q 947 1113 1208 752 
Q 1469 391 1925 391 
Q 2381 391 2643 752 
Q 2906 1113 2906 1747 
Q 2906 2381 2643 2742 
Q 2381 3103 1925 3103 
Q 1469 3103 1208 2742 
Q 947 2381 947 1747 
z
" transform="scale(0.015625)"/>
      <path id="DejaVuSans-65" d="M 3597 1894 
L 3597 1613 
L 953 1613 
Q 991 1019 1311 708 
Q 1631 397 2203 397 
Q 2534 397 2845 478 
Q 3156 559 3463 722 
L 3463 178 
Q 3153 47 2828 -22 
Q 2503 -91 2169 -91 
Q 1331 -91 842 396 
Q 353 884 353 1716 
Q 353 2575 817 3079 
Q 1281 3584 2069 3584 
Q 2775 3584 3186 3129 
Q 3597 2675 3597 1894 
z
M 3022 2063 
Q 3016 2534 2758 2815 
Q 2500 3097 2075 3097 
Q 1594 3097 1305 2825 
Q 1016 2553 972 2059 
L 3022 2063 
z
" transform="scale(0.015625)"/>
      <path id="DejaVuSans-62" d="M 3116 1747 
Q 3116 2381 2855 2742 
Q 2594 3103 2138 3103 
Q 1681 3103 1420 2742 
Q 1159 2381 1159 1747 
Q 1159 1113 1420 752 
Q 1681 391 2138 391 
Q 2594 391 2855 752 
Q 3116 1113 3116 1747 
z
M 1159 2969 
Q 1341 3281 1617 3432 
Q 1894 3584 2278 3584 
Q 2916 3584 3314 3078 
Q 3713 2572 3713 1747 
Q 3713 922 3314 415 
Q 2916 -91 2278 -91 
Q 1894 -91 1617 61 
Q 1341 213 1159 525 
L 1159 0 
L 581 0 
L 581 4863 
L 1159 4863 
L 1159 2969 
z
" transform="scale(0.015625)"/>
      <path id="DejaVuSans-61" d="M 2194 1759 
Q 1497 1759 1228 1600 
Q 959 1441 959 1056 
Q 959 750 1161 570 
Q 1363 391 1709 391 
Q 2188 391 2477 730 
Q 2766 1069 2766 1631 
L 2766 1759 
L 2194 1759 
z
M 3341 1997 
L 3341 0 
L 2766 0 
L 2766 531 
Q 2569 213 2275 61 
Q 1981 -91 1556 -91 
Q 1019 -91 701 211 
Q 384 513 384 1019 
Q 384 1609 779 1909 
Q 1175 2209 1959 2209 
L 2766 2209 
L 2766 2266 
Q 2766 2663 2505 2880 
Q 2244 3097 1772 3097 
Q 1472 3097 1187 3025 
Q 903 2953 641 2809 
L 641 3341 
Q 956 3463 1253 3523 
Q 1550 3584 1831 3584 
Q 2591 3584 2966 3190 
Q 3341 2797 3341 1997 
z
" transform="scale(0.015625)"/>
      <path id="DejaVuSans-73" d="M 2834 3397 
L 2834 2853 
Q 2591 2978 2328 3040 
Q 2066 3103 1784 3103 
Q 1356 3103 1142 2972 
Q 928 2841 928 2578 
Q 928 2378 1081 2264 
Q 1234 2150 1697 2047 
L 1894 2003 
Q 2506 1872 2764 1633 
Q 3022 1394 3022 966 
Q 3022 478 2636 193 
Q 2250 -91 1575 -91 
Q 1294 -91 989 -36 
Q 684 19 347 128 
L 347 722 
Q 666 556 975 473 
Q 1284 391 1588 391 
Q 1994 391 2212 530 
Q 2431 669 2431 922 
Q 2431 1156 2273 1281 
Q 2116 1406 1581 1522 
L 1381 1569 
Q 847 1681 609 1914 
Q 372 2147 372 2553 
Q 372 3047 722 3315 
Q 1072 3584 1716 3584 
Q 2034 3584 2315 3537 
Q 2597 3491 2834 3397 
z
" transform="scale(0.015625)"/>
      <path id="DejaVuSans-49" d="M 628 4666 
L 1259 4666 
L 1259 0 
L 628 0 
L 628 4666 
z
" transform="scale(0.015625)"/>
      <path id="DejaVuSans-6d" d="M 3328 2828 
Q 3544 3216 3844 3400 
Q 4144 3584 4550 3584 
Q 5097 3584 5394 3201 
Q 5691 2819 5691 2113 
L 5691 0 
L 5113 0 
L 5113 2094 
Q 5113 2597 4934 2840 
Q 4756 3084 4391 3084 
Q 3944 3084 3684 2787 
Q 3425 2491 3425 1978 
L 3425 0 
L 2847 0 
L 2847 2094 
Q 2847 2600 2669 2842 
Q 2491 3084 2119 3084 
Q 1678 3084 1418 2786 
Q 1159 2488 1159 1978 
L 1159 0 
L 581 0 
L 581 3500 
L 1159 3500 
L 1159 2956 
Q 1356 3278 1631 3431 
Q 1906 3584 2284 3584 
Q 2666 3584 2933 3390 
Q 3200 3197 3328 2828 
z
" transform="scale(0.015625)"/>
      <path id="DejaVuSans-70" d="M 1159 525 
L 1159 -1331 
L 581 -1331 
L 581 3500 
L 1159 3500 
L 1159 2969 
Q 1341 3281 1617 3432 
Q 1894 3584 2278 3584 
Q 2916 3584 3314 3078 
Q 3713 2572 3713 1747 
Q 3713 922 3314 415 
Q 2916 -91 2278 -91 
Q 1894 -91 1617 61 
Q 1341 213 1159 525 
z
M 3116 1747 
Q 3116 2381 2855 2742 
Q 2594 3103 2138 3103 
Q 1681 3103 1420 2742 
Q 1159 2381 1159 1747 
Q 1159 1113 1420 752 
Q 1681 391 2138 391 
Q 2594 391 2855 752 
Q 3116 1113 3116 1747 
z
" transform="scale(0.015625)"/>
      <path id="DejaVuSans-72" d="M 2631 2963 
Q 2534 3019 2420 3045 
Q 2306 3072 2169 3072 
Q 1681 3072 1420 2755 
Q 1159 2438 1159 1844 
L 1159 0 
L 581 0 
L 581 3500 
L 1159 3500 
L 1159 2956 
Q 1341 3275 1631 3429 
Q 1922 3584 2338 3584 
Q 2397 3584 2469 3576 
Q 2541 3569 2628 3553 
L 2631 2963 
z
" transform="scale(0.015625)"/>
      <path id="DejaVuSans-47" d="M 3809 666 
L 3809 1919 
L 2778 1919 
L 2778 2438 
L 4434 2438 
L 4434 434 
Q 4069 175 3628 42 
Q 3188 -91 2688 -91 
Q 1594 -91 976 548 
Q 359 1188 359 2328 
Q 359 3472 976 4111 
Q 1594 4750 2688 4750 
Q 3144 4750 3555 4637 
Q 3966 4525 4313 4306 
L 4313 3634 
Q 3963 3931 3569 4081 
Q 3175 4231 2741 4231 
Q 1884 4231 1454 3753 
Q 1025 3275 1025 2328 
Q 1025 1384 1454 906 
Q 1884 428 2741 428 
Q 3075 428 3337 486 
Q 3600 544 3809 666 
z
" transform="scale(0.015625)"/>
     </defs>
     <use xlink:href="#DejaVuSans-50"/>
     <use xlink:href="#DejaVuSans-79" x="60.302734"/>
     <use xlink:href="#DejaVuSans-74" x="119.482422"/>
     <use xlink:href="#DejaVuSans-68" x="158.691406"/>
     <use xlink:href="#DejaVuSans-6f" x="222.070312"/>
     <use xlink:href="#DejaVuSans-6e" x="283.251953"/>
     <use xlink:href="#DejaVuSans-20" x="346.630859"/>
     <use xlink:href="#DejaVuSans-43" x="378.417969"/>
     <use xlink:href="#DejaVuSans-6f" x="448.242188"/>
     <use xlink:href="#DejaVuSans-64" x="509.423828"/>
     <use xlink:href="#DejaVuSans-65" x="572.900391"/>
     <use xlink:href="#DejaVuSans-62" x="634.423828"/>
     <use xlink:href="#DejaVuSans-61" x="697.900391"/>
     <use xlink:href="#DejaVuSans-73" x="759.179688"/>
     <use xlink:href="#DejaVuSans-65" x="811.279297"/>
     <use xlink:href="#DejaVuSans-20" x="872.802734"/>
     <use xlink:href="#DejaVuSans-49" x="904.589844"/>
     <use xlink:href="#DejaVuSans-6d" x="934.082031"/>
     <use xlink:href="#DejaVuSans-70" x="1031.494141"/>
     <use xlink:href="#DejaVuSans-6f" x="1094.970703"/>
     <use xlink:href="#DejaVuSans-72" x="1156.152344"/>
     <use xlink:href="#DejaVuSans-74" x="1197.265625"/>
     <use xlink:href="#DejaVuSans-20" x="1236.474609"/>
     <use xlink:href="#DejaVuSans-47" x="1268.261719"/>
     <use xlink:href="#DejaVuSans-72" x="1345.751953"/>
     <use xlink:href="#DejaVuSans-61" x="1386.865234"/>
     <use xlink:href="#DejaVuSans-70" x="1448.144531"/>
     <use xlink:href="#DejaVuSans-68" x="1511.621094"/>
    </g>
   </g>
  </g>
 </g>
 <defs>
  <clipPath id="p20533e3c70">
   <rect x="0" y="0" width="864" height="864"/>
  </clipPath>
 </defs>
</svg>
